<svg width="106" height="107" viewBox="0 0 106 107" fill="none" xmlns="http://www.w3.org/2000/svg">
<path d="M53 4L3 43.6552L25.4138 104H80.5862L103 43.6552L53 4Z" stroke="url(#paint0_linear_25_24)" stroke-width="5"/>
<path d="M69.6675 37.75H64.25V35.25C64.25 34.5588 63.6912 34 63 34C62.3088 34 61.75 34.5588 61.75 35.25V37.75H54.25V35.25C54.25 34.5588 53.69 34 53 34C52.31 34 51.75 34.5588 51.75 35.25V37.75H44.25V35.25C44.25 34.5588 43.69 34 43 34C42.31 34 41.75 34.5588 41.75 35.25V37.75H36.3338C34.4925 37.75 33 39.2413 33 41.0825V70.6663C33 72.5075 34.4925 74 36.3338 74H69.6675C71.5088 74 73 72.5075 73 70.6663V41.0825C73 39.2413 71.5088 37.75 69.6675 37.75ZM70.5 70.6663C70.5 71.1263 70.1263 71.5 69.6675 71.5H36.3338C35.8737 71.5 35.5 71.1263 35.5 70.6663V41.0825C35.5 40.6237 35.8737 40.25 36.3338 40.25H41.75V42.75C41.75 43.4412 42.31 44 43 44C43.69 44 44.25 43.4412 44.25 42.75V40.25H51.75V42.75C51.75 43.4412 52.31 44 53 44C53.69 44 54.25 43.4412 54.25 42.75V40.25H61.75V42.75C61.75 43.4412 62.3088 44 63 44C63.6912 44 64.25 43.4412 64.25 42.75V40.25H69.6675C70.1263 40.25 70.5 40.6237 70.5 41.0825V70.6663Z" fill="#834E78"/>
<path d="M46.75 49H41.75V52.75H46.75V49Z" fill="#834E78"/>
<path d="M46.75 55.25H41.75V59H46.75V55.25Z" fill="#834E78"/>
<path d="M46.75 61.5H41.75V65.25H46.75V61.5Z" fill="#834E78"/>
<path d="M55.5 61.5H50.5V65.25H55.5V61.5Z" fill="#834E78"/>
<path d="M55.5 55.25H50.5V59H55.5V55.25Z" fill="#834E78"/>
<path d="M55.5 49H50.5V52.75H55.5V49Z" fill="#834E78"/>
<path d="M64.25 61.5H59.25V65.25H64.25V61.5Z" fill="#834E78"/>
<path d="M64.25 55.25H59.25V59H64.25V55.25Z" fill="#834E78"/>
<path d="M64.25 49H59.25V52.75H64.25V49Z" fill="#834E78"/>
<defs>
<linearGradient id="paint0_linear_25_24" x1="53" y1="4" x2="53" y2="104" gradientUnits="userSpaceOnUse">
<stop stop-color="#A64254"/>
<stop offset="1" stop-color="#5D5C9E"/>
</linearGradient>
</defs>
</svg>
