<svg width="106" height="107" viewBox="0 0 106 107" fill="none" xmlns="http://www.w3.org/2000/svg">
<path d="M53 4L3 43.6552L25.4138 104H80.5862L103 43.6552L53 4Z" stroke="url(#paint0_linear_27_56)" stroke-width="5"/>
<path d="M71.3333 42.3333H66.3333V37.3333H68C69 37.3333 69.6667 36.6667 69.6667 35.6667C69.6667 34.6667 69 34 68 34H64.6667H41.3333H38C37 34 36.3333 34.6667 36.3333 35.6667C36.3333 36.6667 37 37.3333 38 37.3333H39.6667V42.3333H34.6667C33.6667 42.3333 33 43 33 44V54C33 55 33.6667 55.6667 34.6667 55.6667H39.6667C39.6667 61.1667 44.1667 65.6667 49.6667 65.6667V69H48C47 69 46.3333 69.6667 46.3333 70.6667V72.3333C46.3333 73.3333 47 74 48 74H58C59 74 59.6667 73.3333 59.6667 72.3333V70.6667C59.6667 69.6667 59 69 58 69H56.3333V65.6667C61.8333 65.6667 66.3333 61.1667 66.3333 55.6667H71.3333C72.3333 55.6667 73 55 73 54V44C73 43 72.3333 42.3333 71.3333 42.3333ZM39.6667 54H34.6667V44H39.6667V54ZM58 70.6667V72.3333H48V70.6667H51.3333V65.6667H54.6667V70.6667H58ZM63 55.6667C63 59.3333 60 62.3333 56.3333 62.3333H49.6667C46 62.3333 43 59.3333 43 55.6667V37.3333H63V55.6667ZM71.3333 54H66.3333V44H71.3333V54Z" fill="#834E78"/>
<path d="M52.9999 55.6666L54.3333 50.3333L59.6666 49L54.3333 47.6666L52.9999 42.3333L51.6666 47.6666L46.3333 49L51.6666 50.3333L52.9999 55.6666Z" fill="#834E78"/>
<defs>
<linearGradient id="paint0_linear_27_56" x1="53" y1="4" x2="53" y2="104" gradientUnits="userSpaceOnUse">
<stop stop-color="#A64254"/>
<stop offset="1" stop-color="#5D5C9E"/>
</linearGradient>
</defs>
</svg>
