<svg width="106" height="107" viewBox="0 0 106 107" fill="none" xmlns="http://www.w3.org/2000/svg">
<path d="M53 4L3 43.6552L25.4138 104H80.5862L103 43.6552L53 4Z" stroke="url(#paint0_linear_27_67)" stroke-width="5"/>
<path d="M71.2876 58.5009C69.3783 58.5053 63.3083 59.1781 62.192 59.3626C61.4872 59.4784 60.6601 59.481 60.0932 59.9547C59.573 60.3894 59.8054 61.1912 60.2941 61.5159C60.8184 61.8618 67.9138 61.8002 69.0253 61.802C68.9295 61.9811 66.9123 65.4397 65.8204 66.8683C63.6055 69.7645 60.3554 72.1577 56.8555 73.2505C52.4621 74.6223 47.3332 73.686 43.5256 71.1589C41.6398 69.9082 40.1571 68.1372 38.929 66.2593C37.8778 64.6516 36.9198 62.304 35.364 61.1473C35.2584 61.0675 35.0593 61.1464 35.0393 61.2795C34.7963 62.9041 35.6664 64.6977 36.3002 66.1547C37.0542 67.8862 38.1391 69.4983 39.3752 70.9247C41.9879 73.9402 46.0146 75.6961 49.9034 76.2722C56.695 77.2799 63.3695 74.1841 67.6268 68.8907C68.5946 67.6866 69.4266 66.384 70.2347 65.0685C70.217 67.122 70.1992 69.1763 70.1864 71.2294C70.1749 73.0052 72.934 73.007 72.946 71.2294C72.9699 67.5469 73.0001 63.8652 73.0001 60.1827C72.9996 59.1967 71.8394 58.5 71.2876 58.5009Z" fill="#834E78"/>
<path d="M40.7939 45.7258C43.0541 43.0944 46.1636 40.7544 49.5835 39.9112C54.2507 38.7621 60.1065 40.4506 63.5313 43.8089C65.0938 45.339 66.2931 47.1521 67.405 49.0207C68.3293 50.5712 69.2163 52.7928 70.6711 53.9034C70.7793 53.9863 70.9718 53.9016 70.9953 53.7721C71.2778 52.1878 70.4462 50.4178 69.8816 48.9732C69.2092 47.2484 68.2348 45.5861 67.1482 44.0887C64.8264 40.8905 61.4415 38.818 57.6729 37.7056C50.5584 35.6078 43.6484 38.3456 38.8925 43.824C37.86 45.0144 36.9588 46.3148 36.0784 47.6236C36.1919 46.0331 36.3077 44.4427 36.4177 42.8518C36.541 41.0799 33.7814 41.0879 33.6586 42.8518C33.4404 45.9848 32.9849 52.5631 33.0004 52.7107C33.0062 52.9822 32.9995 54.1748 34.2391 54.1748C35.673 54.1757 39.0535 54.0462 40.4608 53.9681C41.7386 53.8972 43.0354 53.8887 44.3083 53.7575C44.8219 53.7038 45.9613 53.7224 46.0097 53.1139C46.0873 52.1395 44.2831 51.7789 43.7974 51.731C42.4398 51.5962 37.9438 51.1629 37.0524 51.0892C37.1801 50.8728 37.3056 50.6617 37.4307 50.4732C38.4956 48.8592 39.5321 47.1951 40.7939 45.7258Z" fill="#834E78"/>
<defs>
<linearGradient id="paint0_linear_27_67" x1="53" y1="4" x2="53" y2="104" gradientUnits="userSpaceOnUse">
<stop stop-color="#A64254"/>
<stop offset="1" stop-color="#5D5C9E"/>
</linearGradient>
</defs>
</svg>
